<svg xmlns="http://www.w3.org/2000/svg" version="1.1" xmlns:xlink="http://www.w3.org/1999/xlink" xmlns:svgjs="http://svgjs.dev/svgjs" width="1000" height="164" viewBox="0 0 1000 164"><g transform="matrix(1,0,0,1,-0.6060606060606233,0.3209234573763666)"><svg viewBox="0 0 396 65" data-background-color="#28353b" preserveAspectRatio="xMidYMid meet" height="164" width="1000" xmlns="http://www.w3.org/2000/svg" xmlns:xlink="http://www.w3.org/1999/xlink"><g id="tight-bounds" transform="matrix(1,0,0,1,0.2400000000000091,-0.1271952727406358)"><svg viewBox="0 0 395.52 65.25439054548129" height="65.25439054548129" width="395.52"><g><svg viewBox="0 0 597.094579972518 98.51092969790858" height="65.25439054548129" width="395.52"><g><rect width="6.428232491633027" height="71.63783237800152" x="412.3478337477304" y="13.43654865995353" fill="#ffffff" opacity="1" stroke-width="0" stroke="transparent" fill-opacity="1" class="rect-r$-0" data-fill-palette-color="primary" rx="1%" id="r$-0" data-palette-color="#ffffff"></rect></g><g transform="matrix(1,0,0,1,0,13.614752223082881)"><svg viewBox="0 0 395.52 71.28142525174282" height="71.28142525174282" width="395.52"><g id="textblocktransform"><svg viewBox="0 0 395.52 71.28142525174282" height="71.28142525174282" width="395.52" id="textblock"><g><svg viewBox="0 0 395.52 71.28142525174282" height="71.28142525174282" width="395.52"><g transform="matrix(1,0,0,1,0,0)"><svg width="395.52" viewBox="4.85 -34.9 193.64000000000001 34.9" height="71.28142525174282" data-palette-color="#ffffff"><g class="wordmark-text-0" data-fill-palette-color="primary" id="text-0"><path d="M32.05-9.8L32.05-9.8Q32.05 0 19.2 0L19.2 0 4.85 0 4.85-34.9 18.9-34.9Q24.25-34.9 27.18-32.45 30.1-30 30.1-25.85L30.1-25.85Q30.1-20.35 25.3-18.2L25.3-18.2 25.3-18.05Q32.05-15.9 32.05-9.8ZM9.4-15.7L9.4-4.25 18.75-4.25Q23.6-4.25 25.63-5.75 27.65-7.25 27.65-10L27.65-10Q27.65-15.7 18.8-15.7L18.8-15.7 9.4-15.7ZM9.4-30.65L9.4-19.8 17.7-19.8Q22.15-19.8 23.95-21.3 25.75-22.8 25.75-25.33 25.75-27.85 23.83-29.25 21.9-30.65 18.55-30.65L18.55-30.65 9.4-30.65ZM69.25 0L64.3 0 60.55-8.95 43.6-8.95 39.85 0 34.9 0 49.7-34.9 54.45-34.9 69.25 0ZM52.05-29.3L45.4-13.35 45.4-13.1 58.75-13.1 58.75-13.35 52.15-29.3 52.05-29.3ZM101.55-9.8L101.55-9.8Q101.55 0 88.7 0L88.7 0 74.34 0 74.34-34.9 88.4-34.9Q93.75-34.9 96.67-32.45 99.59-30 99.59-25.85L99.59-25.85Q99.59-20.35 94.8-18.2L94.8-18.2 94.8-18.05Q101.55-15.9 101.55-9.8ZM78.9-15.7L78.9-4.25 88.25-4.25Q93.09-4.25 95.12-5.75 97.15-7.25 97.15-10L97.15-10Q97.15-15.7 88.3-15.7L88.3-15.7 78.9-15.7ZM78.9-30.65L78.9-19.8 87.2-19.8Q91.65-19.8 93.45-21.3 95.25-22.8 95.25-25.33 95.25-27.85 93.32-29.25 91.4-30.65 88.05-30.65L88.05-30.65 78.9-30.65ZM136.19-9.8L136.19-9.8Q136.19 0 123.34 0L123.34 0 108.99 0 108.99-34.9 123.04-34.9Q128.39-34.9 131.32-32.45 134.24-30 134.24-25.85L134.24-25.85Q134.24-20.35 129.44-18.2L129.44-18.2 129.44-18.05Q136.19-15.9 136.19-9.8ZM113.54-15.7L113.54-4.25 122.89-4.25Q127.74-4.25 129.77-5.75 131.79-7.25 131.79-10L131.79-10Q131.79-15.7 122.94-15.7L122.94-15.7 113.54-15.7ZM113.54-30.65L113.54-19.8 121.84-19.8Q126.29-19.8 128.09-21.3 129.89-22.8 129.89-25.33 129.89-27.85 127.97-29.25 126.04-30.65 122.69-30.65L122.69-30.65 113.54-30.65ZM167.84-34.9L167.84-30.65 148.19-30.65 148.19-19.6 166.04-19.6 166.04-15.35 148.19-15.35 148.19-4.25 167.84-4.25 167.84 0 143.64 0 143.64-34.9 167.84-34.9ZM180.09-4.55L198.49-4.55 198.49 0 175.54 0 175.54-34.9 180.09-34.9 180.09-4.55Z" fill="#ffffff" data-fill-palette-color="primary"></path></g></svg></g></svg></g></svg></g></svg></g><g transform="matrix(1,0,0,1,435.6038999870939,0)"><svg viewBox="0 0 161.49067998542412 98.51092969790858" height="98.51092969790858" width="161.49067998542412"><g><svg xmlns="http://www.w3.org/2000/svg" xmlns:xlink="http://www.w3.org/1999/xlink" version="1.1" x="0" y="0" viewBox="0 19.5 100 61.001000000000005" enable-background="new 0 0 100 100" xml:space="preserve" height="98.51092969790858" width="161.49067998542412" class="icon-icon-0" data-fill-palette-color="accent" id="icon-0"><path d="M27.695 19.5H4.107C1.842 19.5 0 21.341 0 23.607c0 2.261 1.841 4.102 4.107 4.102h23.588c2.269 0 4.106-1.841 4.106-4.102C31.801 21.341 29.963 19.5 27.695 19.5z" fill="#fe6152" data-fill-palette-color="accent"></path><path d="M27.695 58.803h-8.173c-2.265 0-4.107 1.842-4.107 4.106 0 2.261 1.842 4.103 4.107 4.103h8.173c2.269 0 4.105-1.842 4.105-4.103C31.8 60.645 29.963 58.803 27.695 58.803z" fill="#fe6152" data-fill-palette-color="accent"></path><path d="M27.695 39.151H11.114c-2.265 0-4.107 1.841-4.107 4.106 0 2.262 1.841 4.104 4.107 4.104h16.581c2.269 0 4.105-1.842 4.105-4.104C31.8 40.992 29.963 39.151 27.695 39.151z" fill="#fe6152" data-fill-palette-color="accent"></path><path d="M92.993 19.5H45.871c-3.87 0-7.007 3.137-7.007 7.007v33.498c0 3.87 3.137 7.007 7.007 7.007h12.088v10.686c0 1.133 0.682 2.155 1.73 2.589 0.348 0.145 0.711 0.214 1.072 0.214 0.729 0 1.445-0.284 1.981-0.821L75.41 67.012h17.583c3.87 0 7.007-3.137 7.007-7.007V26.507C100 22.637 96.863 19.5 92.993 19.5z" fill="#fe6152" data-fill-palette-color="accent"></path></svg></g></svg></g></svg></g><defs></defs></svg><rect width="395.52" height="65.25439054548129" fill="none" stroke="none" visibility="hidden"></rect></g></svg></g></svg>